<svg width="420" height="260" viewBox="0 0 420 260" fill="none" xmlns="http://www.w3.org/2000/svg">
  <defs>
    <linearGradient id="warm" x1="0" y1="0" x2="1" y2="1">
      <stop offset="0" stop-color="#c58e6f" stop-opacity="0.28" />
      <stop offset="1" stop-color="#9a6f57" stop-opacity="0.28" />
    </linearGradient>
  </defs>
  <g stroke="#9a6f57" stroke-width="6" stroke-linecap="round" stroke-linejoin="round" fill="url(#warm)">
    <circle cx="130" cy="78" r="26"/>
    <circle cx="290" cy="78" r="26"/>
    <circle cx="210" cy="110" r="18"/>

    <path d="M94 200 C104 140 168 140 180 200 Z" />
    <path d="M240 200 C250 140 314 140 326 200 Z" />
    <path d="M184 200 C188 160 232 160 236 200 Z" />

    <path d="M150 110 C164 116 172 128 174 140" />
    <path d="M270 110 C256 116 248 128 246 140" />
    <path d="M196 128 C206 136 214 136 224 128" />
  </g>
</svg>
