<svg width="280" height="180" viewBox="0 0 280 180" fill="none" xmlns="http://www.w3.org/2000/svg">
  <g fill="#c58e6f" fill-opacity="0.35">
    <path d="M48 62c0-12 10-22 22-22 9 0 17 5 20 12 3-7 11-12 20-12 12 0 22 10 22 22 0 22-30 34-42 44-12-10-42-22-42-44z"/>
    <path d="M160 44c0-9 7-16 16-16 6 0 12 3 14 9 2-6 8-9 14-9 9 0 16 7 16 16 0 16-22 25-30 32-8-7-30-16-30-32z"/>
    <path d="M172 120c0-8 6-14 14-14 5 0 10 3 12 7 2-4 7-7 12-7 8 0 14 6 14 14 0 14-18 22-26 28-8-6-26-14-26-28z"/>
  </g>
</svg>
